inDegrees=yes
name=ik_lifting_orientations
DataType=double
version=3
OpenSimVersion=4.5-2024-01-10-34fd6af
endheader
time	pelvis_tilt	pelvis_list	pelvis_rotation	pelvis_tx	pelvis_ty	pelvis_tz	hip_flexion_r	hip_adduction_r	hip_rotation_r	knee_angle_r	knee_angle_r_beta	ankle_angle_r	subtalar_angle_r	mtp_angle_r	hip_flexion_l	hip_adduction_l	hip_rotation_l	knee_angle_l	knee_angle_l_beta	ankle_angle_l	subtalar_angle_l	mtp_angle_l	lumbar_extension	lumbar_bending	lumbar_rotation	arm_flex_r	arm_add_r	arm_rot_r	elbow_flex_r	pro_sup_r	wrist_flex_r	wrist_dev_r	arm_flex_l	arm_add_l	arm_rot_l	elbow_flex_l	pro_sup_l	wrist_flex_l	wrist_dev_l
2.44	-2.669733642039045	-0.1975880341056813	-173.7110540322747	0	0.9399999998679526	0	45.87184160614177	-10.4188145338172	0	60.39917334243261	1.054164440308238	-5.122995800959916	0	0	45.87184160614177	-10.4188145338172	0	60.39917334243261	1.054164440308238	-5.122995800959916	0	0	-3.364520156818436	-0.4667337419764351	81.28268422056452	117.2343528963268	67.68354288095186	14.00237931813558	109.4320963682805	1.045157851172632	0	0	0	-12.27128828113732	0	88.98632847725946	1.045157851172632	0	0
2.45	-2.970812910810524	-0.1906363658962191	-174.4463314012378	0	0.9399999998679526	0	45.86989269435721	-10.41554039716	0	60.39847535632907	1.054152258152597	-5.1217423269797	0	0	45.86989269435721	-10.41554039716	0	60.39847535632907	1.054152258152597	-5.1217423269797	0	0	-3.541118858880781	-0.3633172788462993	81.01575265909119	120.7129042694734	68.8020930139665	9.994141702150051	107.4042609644021	1.043533682193595	0	0	0	-12.27440724489014	0	88.9879034347768	1.043533682193595	0	0
2.46	-3.232069289664862	-0.179537657924083	-175.3807564779859	0	0.9399999998679526	0	45.86717563927176	-10.41105528298996	0	60.39749430268051	1.054135135536292	-5.120034284811959	0	0	45.86717563927176	-10.41105528298996	0	60.39749430268051	1.054135135536292	-5.120034284811959	0	0	-3.688776529301512	-0.2768361038497528	80.85383043944358	128.5770902900157	70.67852497907103	2.064748643228266	103.9569091489717	1.041260703148288	0	0	0	-12.27878507004039	0	88.99010754405515	1.041260703148288	0	0
2.47	-3.419940553023719	-0.1541116852025471	-176.44015276223	0	0.9399999998679526	0	45.86493443078082	-10.40734103191718	0	60.39669058178818	1.054121107960453	-5.11862046968588	0	0	45.86493443078082	-10.40734103191718	0	60.39669058178818	1.054121107960453	-5.11862046968588	0	0	-3.687514432321989	-0.1155797585710567	81.13290819158956	137.6257219098247	72.1431394583424	-6.956879033753528	101.8391171196268	1.039389755456399	0	0	0	-12.28238168368002	0	88.99192180316052	1.039389755456399	0	0
2.48	-3.59602416669245	-0.1228013262152567	-177.6565526584078	0	0.9399999998679526	0	45.86244924512661	-10.40325230449962	0	60.39579823297119	1.054105533535521	-5.117068613985835	0	0	45.86244924512661	-10.40325230449962	0	60.39579823297119	1.054105533535521	-5.117068613985835	0	0	-3.740242184428368	-0.04173036560525131	81.54984250717224	146.6923461735273	72.93202550439682	-15.81102520455888	99.75589776339844	1.037312941375395	0	0	0	-12.28637686968976	0	88.99393569111703	1.037312941375395	0	0
2.49	-3.761493402877205	-0.08647246144266925	-178.9368404483314	0	0.9399999998679526	0	45.85983061590093	-10.39897842247508	0	60.39485700893653	1.054089106077117	-5.115451851302653	0	0	45.85983061590093	-10.39897842247508	0	60.39485700893653	1.054089106077117	-5.115451851302653	0	0	-3.833821458129256	-0.02473001990669497	82.30921527571482	152.9414498788229	73.28498605793872	-21.90053368037169	98.08141985382508	1.035122289644649	0	0	0	-12.29059387756027	0	88.99605996761339	1.035122289644649	0	0
2.5	-3.936755629358834	-0.04172292650821764	-180.1967790071468	0	0.9399999998679526	0	45.85730903548367	-10.39488889829335	0	60.39395124461156	1.054073297507399	-5.113909595279087	0	0	45.85730903548367	-10.39488889829335	0	60.39395124461156	1.054073297507399	-5.113909595279087	0	0	-3.879928801264568	0.07374362991754145	83.25337272503981	155.6384803421664	73.48360009010364	-24.68467513967272	96.97206803667248	1.033011861163622	0	0	0	-12.29465704516968	0	88.99810645162309	1.033011861163622	0	0
2.51	-4.107889176325693	-0.001726007492416613	-181.3336660266264	0	0.9399999998679526	0	45.85484401142151	-10.39091871672722	0	60.39306533620287	1.054057835488796	-5.112416809319103	0	0	45.85484401142151	-10.39091871672722	0	60.39306533620287	1.054057835488796	-5.112416809319103	0	0	-3.933361392843611	0.1506475955868549	84.17894937475108	153.3059410098081	73.84137926718746	-22.56361567076952	98.18132950806547	1.030947072016819	0	0	0	-12.29863426918974	0	89.00010867921171	1.030947072016819	0	0
2.52	-4.206242032309085	0.02291944648732604	-181.9524236725387	0	0.9399999998679526	0	45.85225458152952	-10.38677727795578	0	60.39213451678243	1.054041589625168	-5.110864478961942	0	0	45.85225458152952	-10.38677727795578	0	60.39213451678243	1.054041589625168	-5.110864478961942	0	0	-3.921404461248162	0.2608118317490068	84.11915927843684	156.6713534422171	74.22908522768816	-25.91866910831143	98.12885406601525	1.028776451643141	0	0	0	-12.30281704953184	0	89.00221353149462	1.028776451643141	0	0
2.53	-4.311175565854469	0.04809047105015192	-182.5685119022122	0	0.9399999998679526	0	45.84917947316771	-10.38190165758604	0	60.39102837001811	1.05402228372212	-5.109043778991715	0	0	45.84917947316771	-10.38190165758604	0	60.39102837001811	1.05402228372212	-5.109043778991715	0	0	-3.934184045898807	0.3376468985567977	84.07521040776294	161.3193523240997	74.23256410465368	-30.44468793563675	96.28833672685484	1.026196038858507	0	0	0	-12.30779253577475	0	89.00471575991507	1.026196038858507	0	0
2.54	-4.529251025004655	0.08181279875368867	-183.2763544804819	0	0.9399999998679526	0	45.8490129419048	-10.38164200051896	0	60.39096785235408	1.054021227489627	-5.108947228191872	0	0	45.8490129419048	-10.38164200051896	0	60.39096785235408	1.054021227489627	-5.108947228191872	0	0	-4.049633658912599	0.3636058495962846	84.45806928973897	161.2284447540176	74.24677584321014	-30.40109434641542	96.22336895361121	1.026055692542797	0	0	0	-12.30806410348238	0	89.00485185387342	1.026055692542797	0	0
2.55	-4.791489218926638	0.117332483039303	-184.0451963817706	0	0.9399999998679526	0	45.83642658461455	-10.36395149427818	0	60.38586109575751	1.053932097772919	-5.102485741698654	0	0	45.83642658461455	-10.36395149427818	0	60.38586109575751	1.053932097772919	-5.102485741698654	0	0	-4.262409543430645	0.4526541991527299	85.11403101418919	158.9997643267	74.06457519015228	-28.35366243582288	96.08432947419139	1.015065463804253	0	0	0	-12.32999165434597	0	89.0155091000087	1.015065463804253	0	0
2.56	-5.007720990230949	0.1688378658727164	-184.8775277609552	0	0.9399999998679526	0	45.83291007976207	-10.35917167395028	0	60.38446845984381	1.053907791690944	-5.100767326402529	0	0	45.83291007976207	-10.35917167395028	0	60.38446845984381	1.053907791690944	-5.100767326402529	0	0	-4.377043308164314	0.5671141743212338	85.63969569099555	161.6080939984122	73.21505054800922	-30.90728310625638	92.58747247233143	1.011993027109453	0	0	0	-12.33611326183904	0	89.01848844838389	1.011993027109453	0	0
2.57	-5.14108591984284	0.1943875233049143	-185.7252289773613	0	0.9399999998679526	0	45.830658097976	-10.3557794651777	0	60.38365473306131	1.053893589479378	-5.099526993638003	0	0	45.830658097976	-10.3557794651777	0	60.38365473306131	1.053893589479378	-5.099526993638003	0	0	-4.31133480013161	0.7427574280123166	86.55905550609427	163.5550461617318	72.48739629757517	-32.92914208090281	90.94271475543866	1.010090293203522	0	0	0	-12.33979812649915	0	89.02033353159575	1.010090293203522	0	0
2.58	-5.337355554396445	0.2360699725367048	-186.3015211061831	0	0.9399999998679526	0	45.82865611922038	-10.35277596365013	0	60.3829325086063	1.053880984284699	-5.098431376234194	0	0	45.82865611922038	-10.35277596365013	0	60.3829325086063	1.053880984284699	-5.098431376234194	0	0	-4.395622512897313	0.8707473821004791	87.24449328013762	165.3030896691557	71.96633377736376	-34.69427899400213	90.76971308683585	1.008398836545563	0	0	0	-12.34307307716821	0	89.02197373903644	1.008398836545563	0	0
2.59	-5.547506043051908	0.2855212986525253	-186.9982327815814	0	0.9399999998679526	0	45.82808640142677	-10.35113601081423	0	60.38287740473109	1.053880022540646	-5.097780340522248	0	0	45.82808640142677	-10.35113601081423	0	60.38287740473109	1.053880022540646	-5.097780340522248	0	0	-4.469671731103865	1.014971344041138	87.48729480363885	168.4868966843005	71.05126583947387	-37.83540938067264	87.51517593599455	1.008057949489274	0	0	0	-12.3435005824173	0	89.0223042935028	1.008057949489274	0	0
2.6	-5.828234287499416	0.3385849527345395	-187.6857476080008	0	0.9399999998679526	0	45.822333789079	-10.34463948437196	0	60.38036847025756	1.053836233373366	-5.095553907006289	0	0	45.822333789079	-10.34463948437196	0	60.38036847025756	1.053836233373366	-5.095553907006289	0	0	-4.644087006601485	1.13755437731475	87.98690149432666	169.0947875889446	69.9930396427837	-38.57444296985842	82.99773036534845	1.002811004522863	0	0	0	-12.35430319307531	0	89.0273922735049	1.002811004522863	0	0
2.61	-5.936322601232065	0.346475310667274	-187.6014186986554	0	0.9399999998679526	0	45.82200219746148	-10.34415585258034	0	60.38024780528826	1.05383412737236	-5.095379158102722	0	0	45.82200219746148	-10.34415585258034	0	60.38024780528826	1.05383412737236	-5.095379158102722	0	0	-4.599136022673462	1.299089032761582	88.00802377292405	168.7941925268125	69.50118201009232	-38.58277899569624	81.94597637397904	1.002529339282978	0	0	0	-12.3548507197079	0	89.02766540466114	1.002529339282978	0	0
